<?xml version="1.0" standalone="no"?><!DOCTYPE svg PUBLIC "-//W3C//DTD SVG 1.1//EN" "http://www.w3.org/Graphics/SVG/1.1/DTD/svg11.dtd"><svg t="1574384457607" class="icon" viewBox="0 0 1024 1024" version="1.1" xmlns="http://www.w3.org/2000/svg" p-id="1710" xmlns:xlink="http://www.w3.org/1999/xlink" width="200" height="200"><defs><style type="text/css"></style></defs><path d="M511.3 704.7c-106.1 0-192.5-86.4-192.5-192.5s86.4-192.5 192.5-192.5 192.5 86.4 192.5 192.5-86.4 192.5-192.5 192.5z m0-384c-105.6 0-191.5 85.9-191.5 191.5s85.9 191.5 191.5 191.5 191.5-85.9 191.5-191.5-85.9-191.5-191.5-191.5z" fill="#CCCCCC" p-id="1711"></path><path d="M78 329.8h868v397.8H78V329.8" fill="#FB9761" p-id="1712"></path><path d="M946 737.6H78c-5.5 0-10-4.5-10-10V329.8c0-5.5 4.5-10 10-10h868c5.5 0 10 4.5 10 10v397.8c0 5.5-4.5 10-10 10z m-858-20h848V339.8H88v377.8z" fill="#5A3392" p-id="1713"></path><path d="M769.4 245.2h150.2c14.6 0 26.3 11.8 26.3 26.3v1.2c0 14.6-11.8 26.3-26.3 26.3H104.4c-14.6 0-26.3-11.8-26.3-26.3v-1.2c0-14.6 11.8-26.3 26.3-26.3H704" fill="#E2FBFF" p-id="1714"></path><path d="M919.6 309H104.4c-20 0-36.3-16.3-36.3-36.3v-1.2c0-20 16.3-36.3 36.3-36.3H704c5.5 0 10 4.5 10 10s-4.5 10-10 10H104.4c-9 0-16.3 7.3-16.3 16.3v1.2c0 9 7.3 16.3 16.3 16.3h815.2c9 0 16.3-7.3 16.3-16.3v-1.2c0-9-7.3-16.3-16.3-16.3H769.4c-5.5 0-10-4.5-10-10s4.5-10 10-10h150.2c20 0 36.3 16.3 36.3 36.3v1.2c0 20-16.3 36.3-36.3 36.3z" fill="#5A3392" p-id="1715"></path><path d="M230.2 382.5h715v149.4h-715z" fill="#E2FBFF" p-id="1716"></path><path d="M945.2 541.9h-715c-5.5 0-10-4.5-10-10V382.5c0-5.5 4.5-10 10-10h715c5.5 0 10 4.5 10 10v149.4c0 5.5-4.5 10-10 10z m-705-20h695V392.5h-695v129.4z" fill="#5A3392" p-id="1717"></path><path d="M135.2 716.2c7.3-61.6 59.7-109.3 123.3-109.3 63.5 0 115.9 47.7 123.3 109.3M646.1 717.2c7.3-61.6 59.7-109.3 123.3-109.3 63.5 0 115.9 47.7 123.3 109.3" fill="#EE746C" p-id="1718"></path><path d="M656.5 737.5H512c-5.5 0-10-4.5-10-10v-342c0-5.5 4.5-10 10-10h144.5c5.5 0 10 4.5 10 10v342c0 5.5-4.5 10-10 10z m-134.5-20h124.5v-322H522v322zM371.1 538.7c-5.5 0-10-4.5-10-10V385.2c0-5.5 4.5-10 10-10s10 4.5 10 10v143.5c0 5.5-4.5 10-10 10zM802.1 540c-5.5 0-10-4.5-10-10V386.5c0-5.5 4.5-10 10-10s10 4.5 10 10V530c0 5.5-4.5 10-10 10z" fill="#5A3392" p-id="1719"></path><path d="M117.9 417.2c-5.5 0-10-4.5-10-10v-39c0-5.5 4.5-10 10-10h39c5.5 0 10 4.5 10 10s-4.5 10-10 10h-29v29c0 5.5-4.5 10-10 10z" fill="#FFFFFF" p-id="1720"></path><path d="M118.2 437.7m-10 0a10 10 0 1 0 20 0 10 10 0 1 0-20 0Z" fill="#FFFFFF" p-id="1721"></path><path d="M736.8 245.2m-10 0a10 10 0 1 0 20 0 10 10 0 1 0-20 0Z" fill="#5A3392" p-id="1722"></path><path d="M259.1 730.5m-90.5 0a90.5 90.5 0 1 0 181 0 90.5 90.5 0 1 0-181 0Z" fill="#29A3EC" p-id="1723"></path><path d="M259.2 730.5m-60.9 0a60.9 60.9 0 1 0 121.8 0 60.9 60.9 0 1 0-121.8 0Z" fill="#3CDEF6" p-id="1724"></path><path d="M259.1 831c-29.4 0-57.3-12.8-76.4-35.2-3.6-4.2-3.1-10.5 1.1-14.1 4.2-3.6 10.5-3.1 14.1 1.1a80.41 80.41 0 0 0 61.2 28.2c44.4 0 80.5-36.1 80.5-80.5S303.5 650 259.1 650s-80.5 36.1-80.5 80.5c0 5.5-4.5 10-10 10s-10-4.5-10-10c0-55.4 45.1-100.5 100.5-100.5s100.5 45.1 100.5 100.5S314.5 831 259.1 831z" fill="#5A3392" p-id="1725"></path><path d="M259.2 781.9c-13.4 0-26.1-5.2-35.8-14.5-4-3.9-4-10.2-0.2-14.1s10.2-4 14.1-0.2c5.9 5.7 13.6 8.9 21.8 8.9 9 0 17.5-3.9 23.5-10.6 3.7-4.1 10-4.5 14.1-0.9 4.1 3.7 4.5 10 0.9 14.1-9.7 11-23.7 17.3-38.4 17.3z" fill="#FFFFFF" p-id="1726"></path><path d="M173.5 762.8m-10 0a10 10 0 1 0 20 0 10 10 0 1 0-20 0Z" fill="#5A3392" p-id="1727"></path><path d="M770.7 730.5m-90.5 0a90.5 90.5 0 1 0 181 0 90.5 90.5 0 1 0-181 0Z" fill="#29A3EC" p-id="1728"></path><path d="M770.8 730.5m-60.9 0a60.9 60.9 0 1 0 121.8 0 60.9 60.9 0 1 0-121.8 0Z" fill="#3CDEF6" p-id="1729"></path><path d="M770.7 831c-29.4 0-57.3-12.8-76.4-35.2-3.6-4.2-3.1-10.5 1.1-14.1 4.2-3.6 10.5-3.1 14.1 1.1a80.41 80.41 0 0 0 61.2 28.2c44.4 0 80.5-36.1 80.5-80.5S815.1 650 770.7 650s-80.5 36.1-80.5 80.5c0 5.5-4.5 10-10 10s-10-4.5-10-10c0-55.4 45.1-100.5 100.5-100.5s100.5 45.1 100.5 100.5S826.1 831 770.7 831z" fill="#5A3392" p-id="1730"></path><path d="M770.8 781.9c-13.4 0-26.1-5.2-35.8-14.5-4-3.9-4-10.2-0.2-14.1 3.9-4 10.2-4 14.1-0.2 5.9 5.7 13.6 8.9 21.8 8.9 9 0 17.5-3.9 23.5-10.6 3.7-4.1 10-4.5 14.1-0.9 4.1 3.7 4.5 10 0.9 14.1-9.7 11-23.7 17.3-38.4 17.3z" fill="#FFFFFF" p-id="1731"></path><path d="M685.1 762.8m-10 0a10 10 0 1 0 20 0 10 10 0 1 0-20 0Z" fill="#5A3392" p-id="1732"></path></svg>